<svg xmlns="http://www.w3.org/2000/svg" width="79" height="60" viewBox="0 0 79 60" fill="none"><g id="_cappelini 1" clip-path="url(#clip0_26_170)"><path id="Vector" d="M36.3947 29.724C37.2483 29.7542 38.0801 29.4487 38.7154 28.8718C38.8987 28.5235 39.148 28.5679 39.148 28.5679C39.379 28.6605 39.401 29.2163 39.401 29.2163C39.4487 29.635 39.698 29.5535 39.698 29.5535C39.7896 29.5535 39.8153 29.3349 39.8153 29.3349V26.3003C39.676 25.7185 40.4716 25.4666 40.4716 25.4666C40.7209 25.4666 40.7759 25.3258 40.7759 25.3258C40.7783 25.2992 40.7737 25.2725 40.7627 25.2482C40.7517 25.224 40.7345 25.2032 40.7129 25.1878C40.6914 25.1724 40.6662 25.163 40.6399 25.1605C40.6136 25.1581 40.5872 25.1627 40.5632 25.1739H37.3846C37.3606 25.1627 37.3342 25.1581 37.3079 25.1605C37.2816 25.163 37.2564 25.1724 37.2349 25.1878C37.2133 25.2032 37.1961 25.224 37.1851 25.2482C37.1741 25.2725 37.1695 25.2992 37.172 25.3258C37.172 25.3258 37.2233 25.4666 37.4762 25.4666C37.8192 25.5281 38.1293 25.7111 38.351 25.9827C38.5727 26.2542 38.6915 26.5967 38.6861 26.9487C38.7961 29.5795 36.512 29.3942 36.512 29.3942C33.8247 29.4868 33.9127 24.7885 33.9127 24.7885C33.843 20.1791 36.7063 20.52 36.7063 20.52C39.2287 20.6349 39.368 23.3768 39.368 23.3768C39.434 23.9548 39.709 23.4472 39.709 23.4472V20.4829C39.709 20.0013 39.412 20.3199 39.412 20.3199L39.1627 20.7683C38.9574 21.2018 38.6898 20.8942 38.6898 20.8942C38.0163 20.363 37.1689 20.1088 36.3177 20.1828C36.3177 20.1828 32.6515 20.105 32.4205 24.6292C32.4095 24.6069 32.2885 29.3979 36.3947 29.724Z" fill="white"></path><path id="Vector_2" d="M22.716 29.472C22.716 29.3793 22.7454 29.2385 22.98 29.2719C22.98 29.2719 24.0249 29.4572 24.0799 27.5267V21.8983C24.0799 20.9016 22.958 20.6274 22.958 20.6274H22.7747C22.7344 20.6187 22.6979 20.597 22.6708 20.5656C22.6437 20.5342 22.6274 20.4948 22.6244 20.4533C22.6244 20.4533 22.6061 20.3051 22.8297 20.3088H24.6005C24.6005 20.3088 24.8461 20.2421 25.1028 20.6793L29.7662 27.3118V22.9358V21.8946C29.7819 21.597 29.6885 21.3039 29.5039 21.0715C29.3192 20.8391 29.0563 20.6836 28.7653 20.6348C28.6552 20.6153 28.5434 20.6079 28.4317 20.6126C28.4317 20.6126 28.2704 20.5533 28.263 20.4384C28.263 20.4384 28.2374 20.3199 28.45 20.3236H31.4307C31.6397 20.3236 31.614 20.4384 31.614 20.4384C31.614 20.5533 31.4453 20.6126 31.4453 20.6126C31.3337 20.6079 31.2218 20.6153 31.1117 20.6348C30.8208 20.6836 30.5578 20.8391 30.3732 21.0715C30.1885 21.3039 30.0951 21.597 30.1108 21.8946V29.4572C30.1108 29.4572 30.0852 29.5943 29.9898 29.572C29.8945 29.5498 29.9898 29.572 29.9898 29.572H29.8799C29.8799 29.572 29.8799 29.7388 29.5426 29.2237L24.3805 21.7983V27.5267C24.4282 29.4572 25.4804 29.2719 25.4804 29.2719C25.7187 29.2385 25.7517 29.3793 25.7443 29.472V29.5535H22.7307L22.716 29.472Z" fill="white"></path><path id="Vector_3" d="M14.0086 27.1895L16.575 20.6385L16.8023 20.042H17.5942L19.728 25.5629L20.4429 27.4378L20.6739 27.9825L20.7582 28.2011C20.7582 28.2011 21.1945 29.2312 22.0194 29.2682C22.0194 29.2682 22.408 29.22 22.408 29.4312V29.4979C22.3942 29.5172 22.3745 29.5312 22.3519 29.5379C22.3294 29.5446 22.3052 29.5436 22.2833 29.535C22.1917 29.509 22.2833 29.535 22.2833 29.535H18.2505C18.2505 29.535 18.0928 29.5572 18.2175 29.3942C18.2175 29.3942 18.2175 29.283 18.3715 29.2645C18.6261 29.2419 18.8745 29.1728 19.1047 29.0607C19.1047 29.0607 19.5593 28.7902 19.2844 28.101L19.1964 27.8861L18.9654 27.3452L18.3531 25.9001L16.6043 21.3463L14.9362 25.4221L14.2763 27.2747L14.06 27.8083L13.9207 28.1788C13.9207 28.1788 13.6567 28.8384 14.2176 29.0718C14.4167 29.1519 14.6248 29.2067 14.8372 29.2349C14.8665 29.2298 14.8965 29.2315 14.925 29.2397C14.9535 29.248 14.9798 29.2626 15.002 29.2826C15.0242 29.3025 15.0416 29.3272 15.0531 29.3548C15.0645 29.3825 15.0697 29.4124 15.0682 29.4424C15.0682 29.4424 15.1232 29.5239 14.9399 29.5016H12.0545C12.0545 29.5016 11.9152 29.5943 11.9739 29.3016C12.0618 29.2544 12.1604 29.2314 12.2599 29.2349C12.2599 29.2349 13.2204 29.3164 13.7263 27.9009L13.8033 27.7009L14.0086 27.1895Z" fill="white"></path><path id="Vector_4" d="M14.6943 26.2002L14.9033 25.6482H18.3386L18.1333 25.3999H14.8337L14.6943 26.2002Z" fill="white"></path><path id="Vector_5" d="M42.1726 20.3051H48.9111C48.9111 20.3051 49.1641 20.2606 49.1641 20.5644V23.4286C49.1621 23.4747 49.1452 23.5188 49.1161 23.5542C49.087 23.5897 49.0472 23.6146 49.0028 23.625C49.0028 23.625 48.8891 23.6584 48.8891 23.3582C48.8891 23.3582 48.6361 20.2606 45.3365 20.7015C45.1961 20.6916 45.0553 20.7132 44.9242 20.765C44.7931 20.8168 44.6751 20.8973 44.5786 21.0009C44.4821 21.1044 44.4096 21.2284 44.3663 21.3637C44.323 21.4991 44.31 21.6425 44.3283 21.7835V24.6329H44.8562C44.8562 24.6329 46.4694 24.6996 46.3777 23.1026C46.3721 23.0779 46.3725 23.0522 46.3789 23.0277C46.3853 23.0033 46.3976 22.9808 46.4145 22.9621C46.4315 22.9435 46.4527 22.9294 46.4763 22.9209C46.5 22.9125 46.5253 22.9099 46.55 22.9136C46.55 22.9136 46.6674 22.9655 46.6674 23.2434V26.3225C46.6674 26.3225 46.6674 26.53 46.5281 26.5152C46.4646 26.4796 46.414 26.4245 46.3837 26.3578C46.3533 26.2912 46.3448 26.2165 46.3594 26.1446C46.3594 26.1446 46.5281 24.5847 44.3283 24.9108V28.6161C44.3283 28.6161 44.2806 29.2163 45.1752 29.1719C45.1752 29.1719 48.7278 29.6832 49.0724 26.304C49.0724 26.304 49.0724 26.0705 49.1861 26.0631C49.2527 26.0865 49.3093 26.1325 49.346 26.1933C49.3828 26.2542 49.3976 26.326 49.3877 26.3966V29.2756C49.3877 29.2756 49.3877 29.5906 48.9111 29.5461H42.0809C42.0809 29.5461 41.9233 29.5869 41.9086 29.3831C41.9086 29.3831 41.8206 29.2349 42.1506 29.1793C42.1506 29.1793 43.0891 29.5091 43.1698 28.253V21.387C43.1822 21.2795 43.1703 21.1706 43.1351 21.0684C43.0998 20.9662 43.042 20.8735 42.9661 20.7971C42.8903 20.7208 42.7982 20.6628 42.6969 20.6277C42.5957 20.5925 42.4878 20.581 42.3815 20.5941C42.3815 20.5941 42.0149 20.6163 41.9746 20.4607C41.9865 20.4166 42.0122 20.3776 42.0479 20.3495C42.0836 20.3215 42.1273 20.3059 42.1726 20.3051Z" fill="white"></path><path id="Vector_6" d="M52.8781 29.5424H57.7432C57.7432 29.5424 58.0511 29.5868 58.0071 28.9644V26.2298C58.0071 26.2298 57.7872 25.9519 57.7432 26.3225C57.7432 26.3225 57.5818 29.3608 54.5352 29.2867C54.5352 29.2867 53.4353 29.3497 53.4353 28.3752V21.3648C53.3657 20.6015 54.5719 20.5941 54.5719 20.5941C54.7332 20.5941 54.7295 20.4607 54.7295 20.4607C54.7515 20.331 54.5719 20.3051 54.5719 20.3051H51.0413C51.0413 20.3051 50.8066 20.331 50.924 20.4607C50.924 20.4607 50.924 20.5941 51.2209 20.5941C51.2209 20.5941 52.1998 20.6459 52.2035 21.3351V28.3307C52.2035 28.3307 52.2988 29.309 51.1293 29.2645C51.1106 29.2619 51.0916 29.2633 51.0734 29.2685C51.0553 29.2738 51.0385 29.2828 51.024 29.295C51.0095 29.3072 50.9977 29.3223 50.9893 29.3394C50.9809 29.3565 50.9761 29.3751 50.9753 29.3942C51.0057 29.4436 51.0495 29.4831 51.1015 29.508C51.1535 29.533 51.2115 29.5423 51.2686 29.535H52.8964L52.8781 29.5424Z" fill="white"></path><path id="Vector_7" d="M58.8688 24.8404C58.8734 23.9126 59.1268 23.0034 59.6021 22.2096C59.9865 21.5291 60.5552 20.9736 61.2413 20.6084C61.9273 20.2433 62.7022 20.0836 63.475 20.1482C64.2477 20.2128 64.9862 20.499 65.6035 20.9731C66.2209 21.4472 66.6916 22.0896 66.9602 22.8247C67.1845 23.33 67.3233 23.8699 67.3708 24.4217C67.3708 24.4217 67.6018 25.4406 66.9125 27.1562C66.9125 27.1562 66.2049 28.5123 65.1491 29.1237C64.3593 29.5827 63.442 29.7663 62.5387 29.6461C61.9522 29.5356 61.3939 29.3063 60.8974 28.972C60.4009 28.6377 59.9765 28.2053 59.6497 27.7009C59.2989 27.0854 59.0512 26.4156 58.9165 25.7185C58.8636 25.363 58.844 25.0032 58.8578 24.644H60.2327V25.1183C60.2327 25.1183 60.2656 27.3414 60.8632 28.1529C61.0933 28.5447 61.4277 28.8633 61.8284 29.0723C62.229 29.2813 62.6797 29.3723 63.129 29.3349C63.8323 29.3225 64.5046 29.0404 65.0097 28.5457C65.0097 28.5457 65.787 27.875 65.9263 25.3739C65.9263 25.3739 65.8933 23.8659 65.8933 23.8325C65.8933 23.7992 65.776 21.9799 65.0794 21.3203C64.838 21.0367 64.536 20.8123 64.1962 20.664C63.8564 20.5158 63.4877 20.4475 63.118 20.4644C63.118 20.4644 61.8935 20.4644 61.2519 21.2388C61.0068 21.474 60.8186 21.7631 60.7019 22.0836C60.5233 22.5585 60.3811 23.0466 60.2766 23.5435L60.218 24.6551L58.8688 24.8404Z" fill="white"></path><path id="Vector_8" d="M79.0073 40.0692V39.958C79.0073 39.8505 78.7873 39.8061 78.7873 39.8061C77.5115 39.8061 77.6031 38.9872 77.6031 38.9872V31.9064C77.6031 31.9064 77.5115 31.0912 78.7873 31.0912C78.7873 31.0912 78.9999 31.0467 79.0073 30.9393V30.8281H74.9268V30.9393C74.9268 31.0467 75.1431 31.0912 75.1431 31.0912C76.4189 31.0912 76.3273 31.9064 76.3273 31.9064V38.9798C76.3273 38.9798 76.4189 39.7987 75.1431 39.7987C75.1431 39.7987 74.9341 39.8431 74.9268 39.9506V40.0617H79.0073V40.0692Z" fill="white"></path><path id="Vector_9" d="M66.7839 40.0655H68.3751V39.9803C68.3751 39.8839 68.3421 39.7468 68.0891 39.7802C68.0891 39.7802 66.9892 39.9654 66.9269 38.035V32.3103L72.4629 39.7024C72.8296 40.2174 72.8296 40.0544 72.8296 40.0544H72.9286C72.8259 40.0544 72.9286 40.0544 72.9286 40.0544C73.0312 40.0544 73.0569 39.9358 73.0569 39.9358V32.3844C73.0457 32.0772 73.1498 31.777 73.3483 31.5441C73.5469 31.3112 73.8251 31.1626 74.1274 31.1283C74.2486 31.1085 74.3714 31.101 74.494 31.1061C74.494 31.1061 74.67 31.0468 74.6737 30.9319C74.6737 30.9319 74.6993 30.8096 74.4757 30.817H71.2861C71.0624 30.817 71.0881 30.9319 71.0881 30.9319C71.0881 31.0468 71.2714 31.1061 71.2714 31.1061C71.394 31.1007 71.5169 31.1081 71.638 31.1283C71.941 31.1618 72.2201 31.3099 72.4194 31.5429C72.6187 31.776 72.7233 32.0766 72.7122 32.3844V37.8275L67.7262 31.195C67.4475 30.7466 67.1836 30.8244 67.1836 30.8244H65.2918C65.0498 30.8244 65.0718 30.969 65.0718 30.969C65.0759 31.0113 65.0934 31.0512 65.1219 31.0826C65.1503 31.114 65.1881 31.1353 65.2295 31.1431H65.4274C65.4274 31.1431 66.6263 31.4173 66.6263 32.414V38.0424C66.542 39.9803 65.4421 39.7839 65.4421 39.7839C65.1891 39.7505 65.1525 39.8876 65.1598 39.984V40.0655H66.7839Z" fill="white"></path><path id="Vector_10" d="M64.8303 40.0692V39.958C64.8303 39.8505 64.6103 39.8061 64.6103 39.8061C63.3345 39.8061 63.4261 38.9872 63.4261 38.9872V31.9064C63.4261 31.9064 63.3345 31.0912 64.6103 31.0912C64.6103 31.0912 64.8229 31.0467 64.8303 30.9393V30.8281H60.7534V30.9393C60.7534 31.0467 60.9734 31.0912 60.9734 31.0912C62.2492 31.0912 62.1576 31.9064 62.1576 31.9064V38.9798C62.1576 38.9798 62.2492 39.7987 60.9734 39.7987C60.9734 39.7987 60.7608 39.8431 60.7534 39.9506V40.0617H64.8303V40.0692Z" fill="white"></path><path id="Vector_11" d="M54.7113 40.0655H59.9101C59.9101 40.0655 60.24 40.1099 60.1924 39.4837V36.7529C60.1924 36.7529 59.9577 36.475 59.9101 36.8455C59.8839 37.2703 59.7736 37.6854 59.5855 38.0663C59.3975 38.4471 59.1357 38.7858 58.8156 39.0623C58.4954 39.3388 58.1236 39.5475 57.7221 39.6759C57.3206 39.8043 56.8977 39.8498 56.4785 39.8098C56.4785 39.8098 55.3053 39.8691 55.2869 38.8983V31.8878C55.2136 31.1245 56.5041 31.1171 56.5041 31.1171C56.6764 31.1171 56.6728 30.9837 56.6728 30.9837C56.6984 30.8541 56.5041 30.8281 56.5041 30.8281H52.7279C52.7279 30.8281 52.4786 30.8541 52.6033 30.9837C52.6033 30.9837 52.6033 31.1171 52.9222 31.1171C52.9222 31.1171 53.9671 31.169 53.9708 31.8582V38.8686C53.9708 38.8686 54.0734 39.8468 52.8232 39.8024C52.8037 39.7992 52.7837 39.8002 52.7645 39.805C52.7453 39.8099 52.7273 39.8187 52.7115 39.8308C52.6957 39.8429 52.6826 39.8582 52.6728 39.8756C52.663 39.893 52.6568 39.9122 52.6546 39.9321C52.6895 39.9823 52.7373 40.022 52.7929 40.0468C52.8484 40.0716 52.9096 40.0806 52.9699 40.0729H54.7113V40.0655Z" fill="white"></path><path id="Vector_12" d="M46.5099 40.0655H51.7086C51.7086 40.0655 52.0386 40.1099 51.9909 39.4837V36.7529C51.9909 36.7529 51.76 36.475 51.7086 36.8455C51.6825 37.2703 51.5721 37.6854 51.3841 38.0663C51.1961 38.4471 50.9342 38.7858 50.6141 39.0623C50.294 39.3388 49.9222 39.5475 49.5207 39.6759C49.1192 39.8043 48.6963 39.8498 48.277 39.8098C48.277 39.8098 47.1038 39.8691 47.0855 38.8983V31.8878C47.0122 31.1245 48.3027 31.1171 48.3027 31.1171C48.475 31.1171 48.4713 30.9837 48.4713 30.9837C48.497 30.8541 48.3027 30.8281 48.3027 30.8281H44.5448C44.5448 30.8281 44.2955 30.8541 44.4202 30.9837C44.4202 30.9837 44.4202 31.1171 44.7391 31.1171C44.7391 31.1171 45.784 31.169 45.7877 31.8582V38.8686C45.7877 38.8686 45.8903 39.8468 44.6401 39.8024C44.6206 39.7992 44.6006 39.8002 44.5814 39.805C44.5622 39.8099 44.5442 39.8187 44.5284 39.8308C44.5126 39.8429 44.4995 39.8582 44.4897 39.8756C44.4799 39.893 44.4737 39.9122 44.4715 39.9321C44.5064 39.9823 44.5542 40.022 44.6097 40.0468C44.6653 40.0716 44.7265 40.0806 44.7868 40.0729H46.5282L46.5099 40.0655Z" fill="white"></path><path id="Vector_13" d="M35.929 30.8355H42.6676C42.6676 30.8355 42.9169 30.7911 42.9205 31.0912V33.9554C42.9176 34.0016 42.9005 34.0456 42.8715 34.0815C42.8426 34.1174 42.8034 34.1432 42.7592 34.1555C42.7592 34.1555 42.6456 34.1851 42.6456 33.885C42.6456 33.885 42.3926 30.7873 39.0893 31.2283C38.9489 31.2183 38.8081 31.24 38.677 31.2917C38.5459 31.3435 38.4278 31.4241 38.3313 31.5276C38.2348 31.6312 38.1623 31.7551 38.1191 31.8905C38.0758 32.0258 38.0628 32.1692 38.0811 32.3102V35.1633H38.609C38.609 35.1633 40.2258 35.2337 40.1342 33.633C40.1286 33.6083 40.129 33.5827 40.1354 33.5582C40.1418 33.5337 40.154 33.5112 40.171 33.4926C40.188 33.474 40.2092 33.4598 40.2328 33.4513C40.2564 33.4429 40.2817 33.4404 40.3065 33.444C40.3065 33.444 40.4202 33.4959 40.4202 33.7738V36.8529C40.4202 36.8529 40.4202 37.0604 40.2845 37.0493C40.221 37.0137 40.1704 36.9586 40.1401 36.892C40.1098 36.8253 40.1013 36.7506 40.1159 36.6788C40.1159 36.6788 40.2845 35.1225 38.0811 35.4449V39.1502C38.0811 39.1502 38.0371 39.7505 38.9317 39.706C38.9317 39.706 42.4842 40.2211 42.8289 36.8381C42.8289 36.8381 42.8289 36.6047 42.9425 36.5973C43.0093 36.6201 43.0659 36.6661 43.1022 36.7272C43.1385 36.7883 43.152 36.8605 43.1405 36.9307V39.8098C43.1405 39.8098 43.1405 40.1284 42.6676 40.0803H35.8374C35.8374 40.0803 35.676 40.121 35.6614 39.9172C35.6614 39.9172 35.5734 39.769 35.907 39.7134C35.907 39.7134 36.8456 40.0432 36.9262 38.7871V31.9175C36.9346 31.8104 36.9198 31.7027 36.8829 31.602C36.846 31.5013 36.7878 31.4099 36.7125 31.3341C36.6372 31.2583 36.5465 31.2 36.4466 31.1632C36.3468 31.1264 36.2402 31.1119 36.1343 31.1208C36.1343 31.1208 35.7677 31.1468 35.7274 30.9911C35.74 30.9467 35.7664 30.9076 35.8027 30.8796C35.839 30.8516 35.8833 30.8361 35.929 30.8355Z" fill="white"></path><path id="Vector_14" d="M18.7529 40.0654C18.7529 40.0654 18.5366 40.0654 18.7529 39.8505C18.8927 39.7998 19.0407 39.776 19.1892 39.7801C19.1892 39.7801 20.0361 39.6764 20.0801 39.0391V31.9175C20.0801 31.9175 20.1167 31.3024 19.2112 31.0949C19.2112 31.0949 18.7675 31.0949 18.7712 30.9207C18.7712 30.9207 18.7712 30.791 19.0828 30.8059H22.8664C23.6061 30.8342 24.3369 30.9779 25.0331 31.232C25.4267 31.4045 25.781 31.6567 26.0743 31.973C26.0743 31.973 26.9799 32.7845 26.441 34.2555C26.441 34.2555 26.0743 35.33 24.2632 35.7376C24.2632 35.7376 23.6326 35.934 21.9168 35.8525V35.5524C21.9168 35.5524 23.4163 35.6228 23.9076 35.3782C24.1918 35.2915 24.4525 35.1398 24.6693 34.9348C24.8861 34.7298 25.0533 34.4771 25.1578 34.1962C25.1578 34.1962 25.6857 32.9253 24.8938 31.973C24.8938 31.973 24.2302 31.0134 22.4778 31.0949C22.4778 31.0949 21.1689 31.0245 21.2862 32.0434V35.4708V35.5598L21.3266 35.8599V39.0946C21.3266 39.0946 21.4366 39.769 22.3788 39.7801C22.3788 39.7801 22.7197 39.7801 22.7454 39.9987C22.7454 39.9987 22.6757 40.058 22.6391 40.0543L18.7529 40.0654Z" fill="white"></path><path id="Vector_15" d="M9.7154 37.7052L12.2818 31.1542L12.5091 30.5577H13.301L15.4347 36.0786L16.168 37.9535L16.3989 38.4981L16.4833 38.7168C16.4833 38.7168 16.9195 39.7468 17.7445 39.7839C17.7445 39.7839 18.1331 39.7357 18.1331 39.9469V40.0136C18.1193 40.0328 18.0996 40.0469 18.077 40.0536C18.0544 40.0603 18.0303 40.0593 18.0084 40.0507C17.9168 40.0247 18.0084 40.0507 18.0084 40.0507H13.9756C13.9756 40.0507 13.8179 40.0729 13.9426 39.9099C13.9426 39.9099 13.9426 39.7987 14.0966 39.7802C14.3511 39.7576 14.5996 39.6885 14.8298 39.5764C14.8298 39.5764 15.2844 39.3059 15.0094 38.6167L14.9215 38.4018L14.6905 37.8571L14.0856 36.4232L12.3368 31.8731L10.6686 35.9489L10.0087 37.783L9.7924 38.3203L9.65308 38.6908C9.65308 38.6908 9.38911 39.3504 9.95004 39.5838C10.1491 39.6639 10.3572 39.7186 10.5696 39.7468C10.5989 39.7418 10.6289 39.7435 10.6574 39.7517C10.6859 39.76 10.7122 39.7746 10.7344 39.7945C10.7566 39.8144 10.7741 39.8392 10.7855 39.8668C10.797 39.8945 10.8021 39.9244 10.8006 39.9543C10.8006 39.9543 10.8556 40.0358 10.6723 40.0136H7.78697C7.78697 40.0136 7.64765 40.1062 7.70631 39.8135C7.79421 39.7664 7.89282 39.7434 7.99228 39.7468C7.99228 39.7468 8.95283 39.8283 9.45877 38.4129L9.53576 38.2128L9.7154 37.7052Z" fill="white"></path><path id="Vector_16" d="M35.0417 33.4552C35.0417 30.817 31.3241 30.8022 31.3241 30.8022H27.4489C27.3961 30.7928 27.3417 30.7989 27.2923 30.82C27.2429 30.841 27.2005 30.876 27.1703 30.9208C27.1703 30.9208 27.1263 31.0949 27.4489 31.0727C27.4489 31.0727 28.4755 31.1505 28.4755 31.8916V38.9835C28.4755 38.9835 28.5671 39.8024 27.2913 39.8024C27.2913 39.8024 27.0786 39.8469 27.0713 39.9543V40.0655H31.1445V39.958C31.1445 39.8506 30.9245 39.8061 30.9245 39.8061C29.6523 39.8061 29.744 38.9872 29.744 38.9872V35.8711H31.2581C35.115 35.8711 35.0417 33.4552 35.0417 33.4552ZM33.5752 34.1963C33.5396 34.3017 33.4942 34.4034 33.4395 34.5001L33.4065 34.552C33.3891 34.5842 33.3695 34.6152 33.3479 34.6446C33.3149 34.6928 33.2745 34.741 33.2342 34.7891L33.1646 34.8669L33.0986 34.9299C32.8768 35.1354 32.6125 35.2886 32.325 35.3783C32.2562 35.4118 32.1835 35.4367 32.1087 35.4524L31.9364 35.4894C31.6791 35.5293 31.4194 35.5516 31.1591 35.5561H30.7009C30.4809 35.5561 30.3342 35.5561 30.3342 35.5561H29.711V31.8286C29.7102 31.8138 29.7102 31.7989 29.711 31.7841C29.711 31.7841 29.711 31.7545 29.711 31.7434C29.7317 31.6636 29.7665 31.5883 29.8136 31.521C29.9676 31.321 30.3269 31.106 31.1628 31.1505C31.5929 31.1537 32.0189 31.2353 32.4203 31.3914C32.7641 31.5199 33.0678 31.7385 33.3002 32.025C33.3461 32.0784 33.3878 32.1354 33.4249 32.1954L33.4432 32.2213C33.4725 32.2658 33.4982 32.314 33.5239 32.3584C33.6631 32.6549 33.7358 32.9788 33.7365 33.307C33.73 33.6109 33.673 33.9115 33.5678 34.1963H33.5752Z" fill="white"></path><path id="Vector_17" d="M31.1488 40.0654H31.1445V40.0698L31.1488 40.0654Z" fill="white"></path><path id="Vector_18" d="M29.6377 35.5783H30.4296V35.8673H29.6487L29.6377 35.5783Z" fill="white"></path><path id="Vector_19" d="M66.3406 18.2523H49.7472C49.7472 18.2523 31.3244 18.8081 31.3244 0.370544H48.3834C48.3834 18.8081 29.9605 18.2523 29.9605 18.2523H13.3818" stroke="white" stroke-width="2"></path><path id="Vector_20" d="M31.2986 0.370544C31.2986 16.8443 16.586 18.156 13.4551 18.2449" stroke="white" stroke-width="2"></path><path id="Vector_21" d="M48.3174 0.370544C48.3174 16.8443 63.03 18.156 66.1609 18.2449" stroke="white" stroke-width="2"></path><path id="Vector_22" d="M66.3406 41.7476H49.7472C49.7472 41.7476 31.3244 41.1918 31.3244 59.6294H48.3834C48.3834 41.1918 29.9605 41.7476 29.9605 41.7476H13.3818" stroke="white" stroke-width="2"></path><path id="Vector_23" d="M31.2986 59.6183C31.2986 43.1408 16.586 41.8329 13.4551 41.7402" stroke="white" stroke-width="2"></path><path id="Vector_24" d="M48.3174 59.6183C48.3174 43.1408 63.03 41.8329 66.1609 41.7402" stroke="white" stroke-width="2"></path><path id="Vector_25" d="M10.4009 36.7159L10.6099 36.1638H14.0451L13.8398 35.9155H10.5402L10.4009 36.7159Z" fill="white"></path><path id="Vector_26" d="M7.3618 36.6121C7.3618 40.2915 4.38115 40.2396 4.38115 40.2396H4.27483C1.91378 40.2396 0 38.1017 0 35.4672C0 32.8327 1.91378 30.691 4.27483 30.691C4.27483 30.691 5.41869 30.7985 6.01262 31.3543C6.01262 31.3543 6.65788 31.999 6.91085 31.0727C6.90273 31.0394 6.90247 31.0046 6.91012 30.9711C6.91778 30.9377 6.93311 30.9065 6.95489 30.8802C6.97667 30.8539 7.00427 30.8331 7.03547 30.8195C7.06668 30.806 7.1006 30.8 7.13449 30.8022C7.13449 30.8022 7.29214 30.8393 7.29214 31.2098V33.8517C7.29214 33.8517 7.29214 34.1963 7.10883 34.1777C7.10883 34.1777 6.86686 34.2444 6.82286 33.7331C6.77887 33.2218 6.82286 33.6886 6.82286 33.6886C6.82286 33.6886 6.41591 31.1394 4.2565 31.0245C2.09709 30.9097 1.6718 33.2848 1.6718 33.2848C1.07787 34.8521 1.62414 37.6459 1.62414 37.6459C1.62414 37.6459 2.03842 40.0581 4.42148 39.895C4.99716 39.8757 5.54898 39.6579 5.98518 39.2777C6.42138 38.8975 6.7157 38.3779 6.8192 37.8052L6.83752 37.7385C6.9301 37.3732 6.99748 37.0017 7.03917 36.6269L7.3618 36.6121Z" fill="white"></path><path id="Vector_27" d="M21.2275 35.5783H22.0194V35.8673H21.2385L21.2275 35.5783Z" fill="white"></path></g><defs><clipPath id="clip0_26_170"><rect width="79" height="60" fill="white"></rect></clipPath></defs></svg>