<svg width="134" height="35" viewBox="0 0 134 35" fill="none" xmlns="http://www.w3.org/2000/svg">
<path d="M25.708 23.7363H26.416L29.956 32.2563H29.068L27.964 29.5923H24.136L23.044 32.2563H22.144L25.708 23.7363ZM27.772 28.9323L26.056 24.7203L24.316 28.9323H27.772ZM36.8894 26.7243C36.3454 26.7403 35.8654 26.8923 35.4494 27.1803C35.0414 27.4683 34.7534 27.8643 34.5854 28.3683V32.2563H33.7694V26.0043H34.5374V27.5043C34.7534 27.0643 35.0374 26.7083 35.3894 26.4363C35.7494 26.1643 36.1294 26.0123 36.5294 25.9803C36.6094 25.9723 36.6774 25.9683 36.7334 25.9683C36.7894 25.9683 36.8414 25.9723 36.8894 25.9803V26.7243ZM43.2609 32.3763C42.6529 32.3763 42.1129 32.2283 41.6409 31.9323C41.1689 31.6283 40.7969 31.2323 40.5249 30.7443C40.2529 30.2483 40.1169 29.7043 40.1169 29.1123C40.1169 28.5203 40.2489 27.9843 40.5129 27.5043C40.7769 27.0163 41.1449 26.6283 41.6169 26.3403C42.0889 26.0443 42.6329 25.8963 43.2489 25.8963C43.8329 25.8963 44.3449 26.0323 44.7849 26.3043C45.2329 26.5683 45.5689 26.9283 45.7929 27.3843L45.0009 27.6363C44.8249 27.3163 44.5769 27.0683 44.2569 26.8923C43.9449 26.7083 43.5969 26.6163 43.2129 26.6163C42.7889 26.6163 42.4049 26.7243 42.0609 26.9403C41.7249 27.1563 41.4529 27.4563 41.2449 27.8403C41.0449 28.2163 40.9449 28.6403 40.9449 29.1123C40.9449 29.5843 41.0489 30.0123 41.2569 30.3963C41.4649 30.7803 41.7409 31.0883 42.0849 31.3203C42.4289 31.5443 42.8089 31.6563 43.2249 31.6563C43.4969 31.6563 43.7609 31.6083 44.0169 31.5123C44.2729 31.4163 44.4929 31.2883 44.6769 31.1283C44.8609 30.9603 44.9849 30.7803 45.0489 30.5883L45.8529 30.8283C45.7409 31.1243 45.5569 31.3923 45.3009 31.6323C45.0449 31.8643 44.7409 32.0483 44.3889 32.1843C44.0369 32.3123 43.6609 32.3763 43.2609 32.3763ZM55.1508 32.2563H54.3348V28.7643C54.3348 27.3483 53.8548 26.6403 52.8948 26.6403C52.5828 26.6403 52.2788 26.7203 51.9828 26.8803C51.6868 27.0323 51.4228 27.2443 51.1908 27.5163C50.9668 27.7803 50.8068 28.0843 50.7108 28.4283V32.2563H49.8948V23.4963H50.7108V27.4203C50.9588 26.9563 51.3028 26.5883 51.7428 26.3163C52.1908 26.0363 52.6668 25.8963 53.1708 25.8963C53.6508 25.8963 54.0348 26.0123 54.3228 26.2443C54.6108 26.4683 54.8188 26.7843 54.9468 27.1923C55.0828 27.5923 55.1508 28.0603 55.1508 28.5963V32.2563ZM59.6509 24.6963V23.4963H60.4669V24.6963H59.6509ZM59.6509 32.2563V26.0043H60.4669V32.2563H59.6509ZM68.0242 31.9563C67.9282 31.9963 67.7522 32.0683 67.4962 32.1723C67.2402 32.2763 66.9442 32.3283 66.6082 32.3283C66.2562 32.3283 65.9482 32.2283 65.6842 32.0283C65.4202 31.8283 65.2882 31.5283 65.2882 31.1283V26.6523H64.4242V26.0043H65.2882V23.8923H66.1042V26.0043H67.5442V26.6523H66.1042V30.9003C66.1202 31.1323 66.2002 31.3043 66.3442 31.4163C66.4962 31.5203 66.6682 31.5723 66.8602 31.5723C67.0842 31.5723 67.2842 31.5363 67.4602 31.4643C67.6442 31.3843 67.7602 31.3283 67.8082 31.2963L68.0242 31.9563ZM74.3983 32.3763C73.7983 32.3763 73.2623 32.2283 72.7903 31.9323C72.3183 31.6363 71.9463 31.2403 71.6743 30.7443C71.4023 30.2483 71.2663 29.7043 71.2663 29.1123C71.2663 28.5283 71.3983 27.9923 71.6623 27.5043C71.9343 27.0163 72.3063 26.6283 72.7783 26.3403C73.2503 26.0443 73.7863 25.8963 74.3863 25.8963C75.0023 25.8963 75.5423 26.0443 76.0063 26.3403C76.4703 26.6363 76.8303 27.0283 77.0863 27.5163C77.3503 27.9963 77.4823 28.5243 77.4823 29.1003C77.4823 29.2283 77.4783 29.3363 77.4703 29.4243H72.1183C72.1583 29.8723 72.2863 30.2723 72.5023 30.6243C72.7183 30.9683 72.9943 31.2443 73.3303 31.4523C73.6663 31.6523 74.0343 31.7523 74.4343 31.7523C74.8423 31.7523 75.2263 31.6483 75.5863 31.4403C75.9463 31.2323 76.2023 30.9603 76.3543 30.6243L77.0623 30.8163C76.9343 31.1203 76.7343 31.3923 76.4623 31.6323C76.1983 31.8643 75.8903 32.0483 75.5383 32.1843C75.1863 32.3123 74.8063 32.3763 74.3983 32.3763ZM72.0943 28.8363H76.7143C76.6823 28.3883 76.5583 27.9923 76.3423 27.6483C76.1263 27.2963 75.8503 27.0243 75.5143 26.8323C75.1783 26.6323 74.8063 26.5323 74.3983 26.5323C73.9903 26.5323 73.6183 26.6323 73.2823 26.8323C72.9463 27.0243 72.6703 27.2963 72.4543 27.6483C72.2463 27.9923 72.1263 28.3883 72.0943 28.8363ZM84.2133 32.3763C83.6052 32.3763 83.0652 32.2283 82.5932 31.9323C82.1212 31.6283 81.7492 31.2323 81.4772 30.7443C81.2052 30.2483 81.0692 29.7043 81.0692 29.1123C81.0692 28.5203 81.2012 27.9843 81.4652 27.5043C81.7292 27.0163 82.0972 26.6283 82.5692 26.3403C83.0412 26.0443 83.5852 25.8963 84.2012 25.8963C84.7852 25.8963 85.2973 26.0323 85.7373 26.3043C86.1853 26.5683 86.5213 26.9283 86.7452 27.3843L85.9532 27.6363C85.7772 27.3163 85.5292 27.0683 85.2092 26.8923C84.8972 26.7083 84.5493 26.6163 84.1652 26.6163C83.7412 26.6163 83.3572 26.7243 83.0132 26.9403C82.6772 27.1563 82.4052 27.4563 82.1972 27.8403C81.9972 28.2163 81.8972 28.6403 81.8972 29.1123C81.8972 29.5843 82.0012 30.0123 82.2092 30.3963C82.4172 30.7803 82.6932 31.0883 83.0372 31.3203C83.3812 31.5443 83.7612 31.6563 84.1772 31.6563C84.4492 31.6563 84.7132 31.6083 84.9692 31.5123C85.2253 31.4163 85.4453 31.2883 85.6293 31.1283C85.8133 30.9603 85.9373 30.7803 86.0012 30.5883L86.8052 30.8283C86.6932 31.1243 86.5092 31.3923 86.2532 31.6323C85.9972 31.8643 85.6932 32.0483 85.3412 32.1843C84.9892 32.3123 84.6132 32.3763 84.2133 32.3763ZM93.8472 31.9563C93.7512 31.9963 93.5752 32.0683 93.3192 32.1723C93.0632 32.2763 92.7672 32.3283 92.4312 32.3283C92.0792 32.3283 91.7712 32.2283 91.5072 32.0283C91.2432 31.8283 91.1112 31.5283 91.1112 31.1283V26.6523H90.2472V26.0043H91.1112V23.8923H91.9272V26.0043H93.3672V26.6523H91.9272V30.9003C91.9432 31.1323 92.0232 31.3043 92.1672 31.4163C92.3192 31.5203 92.4912 31.5723 92.6832 31.5723C92.9072 31.5723 93.1072 31.5363 93.2832 31.4643C93.4672 31.3843 93.5832 31.3283 93.6312 31.2963L93.8472 31.9563ZM97.5667 29.6763V26.0043H98.3827V29.5323C98.3827 30.9483 98.8667 31.6563 99.8347 31.6563C100.315 31.6563 100.763 31.5003 101.179 31.1883C101.603 30.8763 101.907 30.4603 102.091 29.9403V26.0043H102.907V31.2723C102.907 31.4883 103.003 31.6003 103.195 31.6083V32.2563C103.099 32.2723 103.023 32.2803 102.967 32.2803C102.919 32.2803 102.867 32.2803 102.811 32.2803C102.643 32.2643 102.499 32.2003 102.379 32.0883C102.267 31.9763 102.211 31.8403 102.211 31.6803L102.187 30.8403C101.915 31.3283 101.543 31.7083 101.071 31.9803C100.607 32.2443 100.103 32.3763 99.5587 32.3763C98.2307 32.3763 97.5667 31.4763 97.5667 29.6763ZM110.632 26.7243C110.088 26.7403 109.608 26.8923 109.192 27.1803C108.784 27.4683 108.496 27.8643 108.328 28.3683V32.2563H107.512V26.0043H108.28V27.5043C108.496 27.0643 108.78 26.7083 109.132 26.4363C109.492 26.1643 109.872 26.0123 110.272 25.9803C110.352 25.9723 110.42 25.9683 110.476 25.9683C110.532 25.9683 110.584 25.9723 110.632 25.9803V26.7243ZM116.991 32.3763C116.391 32.3763 115.855 32.2283 115.383 31.9323C114.911 31.6363 114.539 31.2403 114.267 30.7443C113.995 30.2483 113.859 29.7043 113.859 29.1123C113.859 28.5283 113.991 27.9923 114.255 27.5043C114.527 27.0163 114.899 26.6283 115.371 26.3403C115.843 26.0443 116.379 25.8963 116.979 25.8963C117.595 25.8963 118.135 26.0443 118.599 26.3403C119.063 26.6363 119.423 27.0283 119.679 27.5163C119.943 27.9963 120.075 28.5243 120.075 29.1003C120.075 29.2283 120.071 29.3363 120.063 29.4243H114.711C114.751 29.8723 114.879 30.2723 115.095 30.6243C115.311 30.9683 115.587 31.2443 115.923 31.4523C116.259 31.6523 116.627 31.7523 117.027 31.7523C117.435 31.7523 117.819 31.6483 118.179 31.4403C118.539 31.2323 118.795 30.9603 118.947 30.6243L119.655 30.8163C119.527 31.1203 119.327 31.3923 119.055 31.6323C118.791 31.8643 118.483 32.0483 118.131 32.1843C117.779 32.3123 117.399 32.3763 116.991 32.3763ZM114.687 28.8363H119.307C119.275 28.3883 119.151 27.9923 118.935 27.6483C118.719 27.2963 118.443 27.0243 118.107 26.8323C117.771 26.6323 117.399 26.5323 116.991 26.5323C116.583 26.5323 116.211 26.6323 115.875 26.8323C115.539 27.0243 115.263 27.2963 115.047 27.6483C114.839 27.9923 114.719 28.3883 114.687 28.8363Z" fill="white" fill-opacity="0.45"/>
<path d="M27.423 4.83448H29.582L30.942 8.82948L32.302 4.83448H34.478L32.421 10.3255L33.951 14.1845L37.368 4.80048H39.918L35.005 16.8705H33.033L30.942 11.8045L28.851 16.8705H26.879L22 4.80048H24.516L27.95 14.1845L29.446 10.3255L27.423 4.83448ZM45.8572 16.9555C44.9732 16.9555 44.1686 16.7855 43.4432 16.4455C42.7292 16.0942 42.1116 15.6352 41.5902 15.0685C41.0802 14.4905 40.6836 13.8331 40.4002 13.0965C40.1169 12.3598 39.9752 11.6061 39.9752 10.8355C39.9752 10.0308 40.1226 9.26015 40.4172 8.52348C40.7232 7.78682 41.1369 7.13515 41.6582 6.56848C42.1909 6.00182 42.8199 5.55415 43.5452 5.22548C44.2706 4.88548 45.0582 4.71548 45.9082 4.71548C46.7809 4.71548 47.5742 4.89682 48.2882 5.25948C49.0136 5.61082 49.6312 6.07548 50.1412 6.65348C50.6512 7.23148 51.0479 7.88882 51.3312 8.62548C51.6146 9.36215 51.7562 10.1101 51.7562 10.8695C51.7562 11.6741 51.6089 12.4448 51.3142 13.1815C51.0196 13.9068 50.6116 14.5528 50.0902 15.1195C49.5689 15.6748 48.9456 16.1225 48.2202 16.4625C47.4949 16.7912 46.7072 16.9555 45.8572 16.9555ZM42.3552 10.8355C42.3552 11.3568 42.4346 11.8611 42.5932 12.3485C42.7519 12.8358 42.9786 13.2665 43.2732 13.6405C43.5792 14.0145 43.9476 14.3148 44.3782 14.5415C44.8202 14.7681 45.3189 14.8815 45.8742 14.8815C46.4409 14.8815 46.9396 14.7681 47.3702 14.5415C47.8122 14.3035 48.1806 13.9918 48.4752 13.6065C48.7812 13.2211 49.0079 12.7905 49.1552 12.3145C49.3139 11.8271 49.3932 11.3341 49.3932 10.8355C49.3932 10.3141 49.3082 9.80982 49.1382 9.32248C48.9796 8.83515 48.7472 8.40448 48.4412 8.03048C48.1466 7.65648 47.7782 7.36182 47.3362 7.14648C46.9056 6.91982 46.4182 6.80648 45.8742 6.80648C45.3076 6.80648 44.8032 6.92548 44.3612 7.16348C43.9192 7.39015 43.5509 7.69615 43.2562 8.08148C42.9616 8.45548 42.7349 8.88615 42.5762 9.37348C42.4289 9.84948 42.3552 10.3368 42.3552 10.8355ZM58.7069 16.9555C57.8229 16.9555 57.0182 16.7855 56.2929 16.4455C55.5789 16.0942 54.9612 15.6352 54.4399 15.0685C53.9299 14.4905 53.5332 13.8331 53.2499 13.0965C52.9665 12.3598 52.8249 11.6061 52.8249 10.8355C52.8249 10.0308 52.9722 9.26015 53.2669 8.52348C53.5729 7.78682 53.9865 7.13515 54.5079 6.56848C55.0405 6.00182 55.6695 5.55415 56.3949 5.22548C57.1202 4.88548 57.9079 4.71548 58.7579 4.71548C59.6305 4.71548 60.4239 4.89682 61.1379 5.25948C61.8632 5.61082 62.4809 6.07548 62.9909 6.65348C63.5009 7.23148 63.8975 7.88882 64.1809 8.62548C64.4642 9.36215 64.6059 10.1101 64.6059 10.8695C64.6059 11.6741 64.4585 12.4448 64.1639 13.1815C63.8692 13.9068 63.4612 14.5528 62.9399 15.1195C62.4185 15.6748 61.7952 16.1225 61.0699 16.4625C60.3445 16.7912 59.5569 16.9555 58.7069 16.9555ZM55.2049 10.8355C55.2049 11.3568 55.2842 11.8611 55.4429 12.3485C55.6015 12.8358 55.8282 13.2665 56.1229 13.6405C56.4289 14.0145 56.7972 14.3148 57.2279 14.5415C57.6699 14.7681 58.1685 14.8815 58.7239 14.8815C59.2905 14.8815 59.7892 14.7681 60.2199 14.5415C60.6619 14.3035 61.0302 13.9918 61.3249 13.6065C61.6309 13.2211 61.8575 12.7905 62.0049 12.3145C62.1635 11.8271 62.2429 11.3341 62.2429 10.8355C62.2429 10.3141 62.1579 9.80982 61.9879 9.32248C61.8292 8.83515 61.5969 8.40448 61.2909 8.03048C60.9962 7.65648 60.6279 7.36182 60.1859 7.14648C59.7552 6.91982 59.2679 6.80648 58.7239 6.80648C58.1572 6.80648 57.6529 6.92548 57.2109 7.16348C56.7689 7.39015 56.4005 7.69615 56.1059 8.08148C55.8112 8.45548 55.5845 8.88615 55.4259 9.37348C55.2785 9.84948 55.2049 10.3368 55.2049 10.8355ZM66.4055 16.8705V4.80048H70.7915C71.7775 4.80048 72.6388 4.95915 73.3755 5.27648C74.1235 5.59382 74.7468 6.02448 75.2455 6.56848C75.7441 7.11248 76.1181 7.75282 76.3675 8.48948C76.6168 9.21482 76.7415 9.99115 76.7415 10.8185C76.7415 11.7365 76.5998 12.5695 76.3165 13.3175C76.0445 14.0541 75.6478 14.6888 75.1265 15.2215C74.6051 15.7428 73.9761 16.1508 73.2395 16.4455C72.5141 16.7288 71.6981 16.8705 70.7915 16.8705H66.4055ZM74.3785 10.8185C74.3785 10.2405 74.2991 9.70782 74.1405 9.22048C73.9818 8.73315 73.7495 8.31382 73.4435 7.96248C73.1375 7.61115 72.7578 7.33915 72.3045 7.14648C71.8625 6.95382 71.3581 6.85748 70.7915 6.85748H68.7515V14.8135H70.7915C71.3695 14.8135 71.8795 14.7115 72.3215 14.5075C72.7748 14.3035 73.1488 14.0258 73.4435 13.6745C73.7495 13.3118 73.9818 12.8868 74.1405 12.3995C74.2991 11.9121 74.3785 11.3851 74.3785 10.8185ZM87.037 6.85748H83.178V16.8705H80.849V6.85748H76.99V4.80048H87.037V6.85748ZM96.9163 14.8135V16.8705H88.5353V4.80048H96.7633V6.85748H90.8813V9.76448H95.9643V11.6685H90.8813V14.8135H96.9163ZM97.7653 10.7505C97.7653 10.0138 97.8956 9.28848 98.1563 8.57448C98.4283 7.84915 98.8193 7.20315 99.3293 6.63648C99.8393 6.06982 100.463 5.61082 101.199 5.25948C101.936 4.90815 102.775 4.73248 103.715 4.73248C104.826 4.73248 105.784 4.97615 106.588 5.46348C107.404 5.95082 108.011 6.58548 108.407 7.36748L106.605 8.60848C106.447 8.26848 106.254 7.98515 106.027 7.75848C105.801 7.52048 105.557 7.33348 105.296 7.19748C105.036 7.06148 104.764 6.96515 104.48 6.90848C104.197 6.84048 103.919 6.80648 103.647 6.80648C103.058 6.80648 102.542 6.92548 102.1 7.16348C101.67 7.40148 101.307 7.71315 101.012 8.09848C100.729 8.47248 100.514 8.90315 100.366 9.39048C100.219 9.86648 100.145 10.3425 100.145 10.8185C100.145 11.3511 100.23 11.8668 100.4 12.3655C100.57 12.8528 100.808 13.2835 101.114 13.6575C101.432 14.0315 101.806 14.3318 102.236 14.5585C102.678 14.7851 103.16 14.8985 103.681 14.8985C103.953 14.8985 104.237 14.8645 104.531 14.7965C104.826 14.7285 105.104 14.6208 105.364 14.4735C105.636 14.3261 105.886 14.1391 106.112 13.9125C106.339 13.6745 106.52 13.3911 106.656 13.0625L108.577 14.1675C108.385 14.6208 108.107 15.0231 107.744 15.3745C107.393 15.7145 106.991 16.0035 106.537 16.2415C106.095 16.4795 105.619 16.6608 105.109 16.7855C104.599 16.9102 104.101 16.9725 103.613 16.9725C102.752 16.9725 101.964 16.7912 101.25 16.4285C100.536 16.0658 99.9186 15.5955 99.3973 15.0175C98.8873 14.4281 98.4849 13.7651 98.1903 13.0285C97.9069 12.2805 97.7653 11.5211 97.7653 10.7505ZM120.3 4.80048V16.8705H117.971V11.7195H112.497V16.8705H110.151V4.80048H112.497V9.67948H117.971V4.80048H120.3Z" fill="white"/>
<path fill-rule="evenodd" clip-rule="evenodd" d="M10 2.63293H0V12.6329C0 15.3944 2.23858 17.6329 5 17.6329H15V7.63293C15 4.87151 12.7614 2.63293 10 2.63293ZM10 4.63291H2V12.6329C2 14.2898 3.34315 15.6329 5 15.6329H13V7.63291C13 5.97606 11.6569 4.63291 10 4.63291Z" fill="#F88500"/>
</svg>
